<?xml version="1.0" encoding="utf-8"?>
<!-- Generator: Adobe Illustrator 18.1.0, SVG Export Plug-In . SVG Version: 6.00 Build 0)  -->
<svg version="1.1" id="Layer_1" xmlns="http://www.w3.org/2000/svg" xmlns:xlink="http://www.w3.org/1999/xlink" x="0px" y="0px"
	 viewBox="0 0 160 160" enable-background="new 0 0 160 160" xml:space="preserve">
<g id="align-left_12_">
	<path fill-rule="evenodd" clip-rule="evenodd" d="M160,43.5c0,0.8-0.7,1.5-1.5,1.5H1.5C0.7,45,0,44.3,0,43.5v-6
		C0,36.7,0.7,36,1.5,36h157c0.8,0,1.5,0.7,1.5,1.5V43.5z M160,19.5c0-0.8-0.7-1.5-1.5-1.5H1.5C0.7,18,0,18.7,0,19.5v6
		C0,26.3,0.7,27,1.5,27h157c0.8,0,1.5-0.7,1.5-1.5V19.5z M160,1.5c0-0.8-0.7-1.5-1.5-1.5H1.5C0.7,0,0,0.7,0,1.5v6C0,8.3,0.7,9,1.5,9
		h157c0.8,0,1.5-0.7,1.5-1.5V1.5z"/>
</g>
<g id="align-left_11_">
	<path fill-rule="evenodd" clip-rule="evenodd" d="M160,140.5c0,0.8-0.7,1.5-1.5,1.5h-43.6c-0.8,0-1.5-0.7-1.5-1.5v-6
		c0-0.8,0.7-1.5,1.5-1.5h43.6c0.8,0,1.5,0.7,1.5,1.5V140.5z M160,116.5c0-0.8-0.7-1.5-1.5-1.5h-43.6c-0.8,0-1.5,0.7-1.5,1.5v6
		c0,0.8,0.7,1.5,1.5,1.5h43.6c0.8,0,1.5-0.7,1.5-1.5V116.5z M160,98.5c0-0.8-0.7-1.5-1.5-1.5h-43.6c-0.8,0-1.5,0.7-1.5,1.5v6
		c0,0.8,0.7,1.5,1.5,1.5h43.6c0.8,0,1.5-0.7,1.5-1.5V98.5z M160,152.5c0-0.8-0.7-1.5-1.5-1.5h-43.6c-0.8,0-1.5,0.7-1.5,1.5v6
		c0,0.8,0.7,1.5,1.5,1.5h43.6c0.8,0,1.5-0.7,1.5-1.5V152.5z"/>
</g>
<g id="align-left_10_">
	<path fill-rule="evenodd" clip-rule="evenodd" d="M103.3,140.5c0,0.8-0.7,1.5-1.5,1.5H58.2c-0.8,0-1.5-0.7-1.5-1.5v-6
		c0-0.8,0.7-1.5,1.5-1.5h43.6c0.8,0,1.5,0.7,1.5,1.5V140.5z M103.3,116.5c0-0.8-0.7-1.5-1.5-1.5H58.2c-0.8,0-1.5,0.7-1.5,1.5v6
		c0,0.8,0.7,1.5,1.5,1.5h43.6c0.8,0,1.5-0.7,1.5-1.5V116.5z M103.3,98.5c0-0.8-0.7-1.5-1.5-1.5H58.2c-0.8,0-1.5,0.7-1.5,1.5v6
		c0,0.8,0.7,1.5,1.5,1.5h43.6c0.8,0,1.5-0.7,1.5-1.5V98.5z M103.3,152.5c0-0.8-0.7-1.5-1.5-1.5H58.2c-0.8,0-1.5,0.7-1.5,1.5v6
		c0,0.8,0.7,1.5,1.5,1.5h43.6c0.8,0,1.5-0.7,1.5-1.5V152.5z"/>
</g>
<g id="align-left_9_">
	<path fill-rule="evenodd" clip-rule="evenodd" d="M46.6,140.5c0,0.8-0.7,1.5-1.5,1.5H1.5c-0.8,0-1.5-0.7-1.5-1.5v-6
		c0-0.8,0.7-1.5,1.5-1.5h43.6c0.8,0,1.5,0.7,1.5,1.5V140.5z M46.6,116.5c0-0.8-0.7-1.5-1.5-1.5H1.5c-0.8,0-1.5,0.7-1.5,1.5v6
		c0,0.8,0.7,1.5,1.5,1.5h43.6c0.8,0,1.5-0.7,1.5-1.5V116.5z M46.6,98.5c0-0.8-0.7-1.5-1.5-1.5H1.5C0.7,97,0,97.7,0,98.5v6
		c0,0.8,0.7,1.5,1.5,1.5h43.6c0.8,0,1.5-0.7,1.5-1.5V98.5z M46.6,152.5c0-0.8-0.7-1.5-1.5-1.5H1.5c-0.8,0-1.5,0.7-1.5,1.5v6
		c0,0.8,0.7,1.5,1.5,1.5h43.6c0.8,0,1.5-0.7,1.5-1.5V152.5z"/>
</g>
<path fill-rule="evenodd" clip-rule="evenodd" d="M160,80.5c0-0.8-0.7-1.5-1.5-1.5h-43.6c-0.8,0-1.5,0.7-1.5,1.5v6
	c0,0.8,0.7,1.5,1.5,1.5h43.6c0.8,0,1.5-0.7,1.5-1.5V80.5z"/>
<path fill-rule="evenodd" clip-rule="evenodd" d="M103.3,80.5c0-0.8-0.7-1.5-1.5-1.5H58.2c-0.8,0-1.5,0.7-1.5,1.5v6
	c0,0.8,0.7,1.5,1.5,1.5h43.6c0.8,0,1.5-0.7,1.5-1.5V80.5z"/>
<path fill-rule="evenodd" clip-rule="evenodd" d="M46.6,80.5c0-0.8-0.7-1.5-1.5-1.5H1.5C0.7,79,0,79.7,0,80.5v6
	C0,87.3,0.7,88,1.5,88h43.6c0.8,0,1.5-0.7,1.5-1.5V80.5z"/>
<path fill-rule="evenodd" clip-rule="evenodd" d="M160,62.5c0-0.8-0.7-1.5-1.5-1.5h-43.6c-0.8,0-1.5,0.7-1.5,1.5v6
	c0,0.8,0.7,1.5,1.5,1.5h43.6c0.8,0,1.5-0.7,1.5-1.5V62.5z"/>
<path fill-rule="evenodd" clip-rule="evenodd" d="M103.3,62.5c0-0.8-0.7-1.5-1.5-1.5H58.2c-0.8,0-1.5,0.7-1.5,1.5v6
	c0,0.8,0.7,1.5,1.5,1.5h43.6c0.8,0,1.5-0.7,1.5-1.5V62.5z"/>
<path fill-rule="evenodd" clip-rule="evenodd" d="M46.6,62.5c0-0.8-0.7-1.5-1.5-1.5H1.5C0.7,61,0,61.7,0,62.5v6
	C0,69.3,0.7,70,1.5,70h43.6c0.8,0,1.5-0.7,1.5-1.5V62.5z"/>
</svg>
