<?xml version="1.0" encoding="utf-8"?>
<!-- Generator: Adobe Illustrator 18.1.0, SVG Export Plug-In . SVG Version: 6.00 Build 0)  -->
<svg version="1.1" id="Layer_1" xmlns="http://www.w3.org/2000/svg" xmlns:xlink="http://www.w3.org/1999/xlink" x="0px" y="0px"
	 viewBox="0 0 160 160" enable-background="new 0 0 160 160" xml:space="preserve">
<g id="align-left_4_">
	<path fill-rule="evenodd" clip-rule="evenodd" d="M103.4,140.5c0,0.8-0.7,1.5-1.5,1.5H1.5c-0.8,0-1.5-0.7-1.5-1.5v-6
		c0-0.8,0.7-1.5,1.5-1.5h100.4c0.8,0,1.5,0.7,1.5,1.5V140.5z M103.4,116.5c0-0.8-0.7-1.5-1.5-1.5H1.5c-0.8,0-1.5,0.7-1.5,1.5v6
		c0,0.8,0.7,1.5,1.5,1.5h100.4c0.8,0,1.5-0.7,1.5-1.5V116.5z M103.4,98.5c0-0.8-0.7-1.5-1.5-1.5H1.5C0.7,97,0,97.7,0,98.5v6
		c0,0.8,0.7,1.5,1.5,1.5h100.4c0.8,0,1.5-0.7,1.5-1.5V98.5z M103.4,152.5c0-0.8-0.7-1.5-1.5-1.5H1.5c-0.8,0-1.5,0.7-1.5,1.5v6
		c0,0.8,0.7,1.5,1.5,1.5h100.4c0.8,0,1.5-0.7,1.5-1.5V152.5z"/>
</g>
<g id="align-left_5_">
	<path fill-rule="evenodd" clip-rule="evenodd" d="M160,140.5c0,0.8-0.7,1.5-1.5,1.5h-43.6c-0.8,0-1.5-0.7-1.5-1.5v-6
		c0-0.8,0.7-1.5,1.5-1.5h43.6c0.8,0,1.5,0.7,1.5,1.5V140.5z M160,116.5c0-0.8-0.7-1.5-1.5-1.5h-43.6c-0.8,0-1.5,0.7-1.5,1.5v6
		c0,0.8,0.7,1.5,1.5,1.5h43.6c0.8,0,1.5-0.7,1.5-1.5V116.5z M160,98.5c0-0.8-0.7-1.5-1.5-1.5h-43.6c-0.8,0-1.5,0.7-1.5,1.5v6
		c0,0.8,0.7,1.5,1.5,1.5h43.6c0.8,0,1.5-0.7,1.5-1.5V98.5z M160,152.5c0-0.8-0.7-1.5-1.5-1.5h-43.6c-0.8,0-1.5,0.7-1.5,1.5v6
		c0,0.8,0.7,1.5,1.5,1.5h43.6c0.8,0,1.5-0.7,1.5-1.5V152.5z"/>
</g>
<g>
	<path fill="#231F20" d="M66.7,52.2l8.1-5.3c0,0,4.3,1.7,6.8,3.3c2.5,1.6-0.8-3.7-2.9-4.6c1.3-1.3,4.8-5.3,4.8-5.3s1.3-1.3,2.5-1.3
		c1.3,0,2.6,1.3,2.6,1.3l4.7,4.8V32.2H66.7V52.2z M72,34.6c1.6,0,2.9,1.3,2.9,2.9c0,1.6-1.3,2.9-2.9,2.9s-2.9-1.3-2.9-2.9
		C69.1,36,70.4,34.6,72,34.6z"/>
	<path fill="#231F20" d="M157.3,0H2.7C1.2,0,0,1.2,0,2.7v80.4c0,1.5,1.2,2.7,2.7,2.7h154.6c1.5,0,2.7-1.2,2.7-2.7V2.7
		C160,1.2,158.8,0,157.3,0z M96,55.1c0,0.6-0.5,1.2-1.2,1.2H65.2c-0.6,0-1.2-0.5-1.2-1.2V30.7c0-0.6,0.5-1.2,1.2-1.2h29.7
		c0.6,0,1.2,0.5,1.2,1.2V55.1z"/>
</g>
</svg>
