<?xml version="1.0" encoding="utf-8"?>
<!-- Generator: Adobe Illustrator 15.1.0, SVG Export Plug-In . SVG Version: 6.00 Build 0)  -->
<!DOCTYPE svg PUBLIC "-//W3C//DTD SVG 1.1//EN" "http://www.w3.org/Graphics/SVG/1.1/DTD/svg11.dtd">
<svg version="1.1" id="Layer_1" xmlns="http://www.w3.org/2000/svg" xmlns:xlink="http://www.w3.org/1999/xlink" x="0px" y="0px"
	 width="100px" height="66.394px" viewBox="0 0 100 66.394" enable-background="new 0 0 100 66.394" xml:space="preserve">
<path fill="#010101" d="M96.722,0H3.279C1.229,0,0,1.229,0,3.279v59.836c0,2.049,1.229,3.278,3.279,3.278h93.442
	c2.05,0,3.278-1.229,3.278-3.278V3.279C100,1.229,98.771,0,96.722,0z M4.918,6.558c0-1.025,0.614-1.64,1.639-1.64h86.886
	c1.025,0,1.639,0.615,1.639,1.64v53.278c0,0.244-0.037,0.464-0.104,0.659c-6.113-6.281-26.457-26.889-30.223-26.889
	c-3.998,0-25.335,23.205-29.583,27.869h-3.725c1.968-2.322,4.827-5.667,8.078-9.368c-5.105-4.131-10.122-7.844-11.655-7.844
	c-2.811,0-16.778,12.475-21.891,17.128c-0.67-0.195-1.06-0.743-1.06-1.555V6.558z"/>
<path fill="#010101" d="M38.119,16.629c4.612,0,8.352,3.737,8.352,8.349c0,4.612-3.74,8.35-8.352,8.35
	c-4.611,0-8.351-3.738-8.351-8.35C29.769,20.367,33.508,16.629,38.119,16.629z"/>
</svg>
