<svg xmlns="http://www.w3.org/2000/svg" xmlns:xlink="http://www.w3.org/1999/xlink" version="1.1" id="Layer_1" x="0px" y="0px" width="100px" height="100px" viewBox="0 0 100 100" enable-background="new 0 0 100 100" xml:space="preserve">
<g id="Captions">
</g>
<g>
	<g>
		<path d="M91.724,97.182c-0.599,0-1.197-0.225-1.656-0.68L71.532,78.213l-5.454,8.631c-0.485,0.768-1.36,1.182-2.275,1.08    c-0.902-0.109-1.662-0.727-1.952-1.59L49.636,49.969c-0.284-0.847-0.066-1.782,0.565-2.415s1.565-0.854,2.413-0.574l36.582,12.137    c0.868,0.289,1.489,1.053,1.599,1.959c0.108,0.908-0.316,1.795-1.092,2.279l-11.169,6.979c-1.104,0.689-2.558,0.354-3.25-0.75    c-0.689-1.105-0.354-2.559,0.751-3.25l6.915-4.32l-27.341-9.07l9.132,27.188l4.37-6.914c0.381-0.604,1.015-1,1.724-1.082    c0.703-0.082,1.417,0.162,1.926,0.664L93.38,93.146c0.927,0.912,0.937,2.406,0.021,3.334    C92.94,96.947,92.331,97.182,91.724,97.182z"/>
	</g>
	<g>
		<path d="M49.457,74.4H13.144c-5.301,0-7.225-4.291-7.225-7.178V9.996c0-5.266,4.32-7.177,7.225-7.177h56.95    c5.301,0,7.225,4.292,7.225,7.177v36.793c0,1.302-1.057,2.358-2.358,2.358s-2.357-1.056-2.357-2.358V9.996    c-0.029-1.108-0.487-2.461-2.509-2.461h-56.95c-0.92,0.022-2.509,0.372-2.509,2.461v57.227c0.028,1.109,0.487,2.463,2.509,2.463    h36.313c1.301,0,2.358,1.055,2.358,2.357C51.814,73.344,50.758,74.4,49.457,74.4z"/>
	</g>
</g>
</svg>